<svg xmlns="http://www.w3.org/2000/svg" viewBox="0 0 64 64" width="64" height="64">
  <defs>
    <linearGradient id="g" x1="0" y1="0" x2="1" y2="1">
      <stop offset="0%" stop-color="#0ea5e9"/>
      <stop offset="100%" stop-color="#2563eb"/>
    </linearGradient>
  </defs>
  <rect x="4" y="4" width="56" height="56" rx="12" ry="12" fill="url(#g)"/>
  <g fill="#fff">
    <path d="M18 22h28a2 2 0 0 1 2 2v6a2 2 0 0 1-2 2H18a2 2 0 0 1-2-2v-6a2 2 0 0 1 2-2z" opacity=".9"/>
    <path d="M18 36h18a2 2 0 0 1 2 2v6a2 2 0 0 1-2 2H18a2 2 0 0 1-2-2v-6a2 2 0 0 1 2-2z" opacity=".9"/>
    <circle cx="45" cy="41" r="6"/>
  </g>
</svg>
